<svg width="160" height="160" viewBox="0 0 160 160" fill="none" xmlns="http://www.w3.org/2000/svg">
<path d="M80 0C35.8171 0 0 35.8171 0 80C0 124.183 35.8171 160 80 160C124.183 160 160 124.183 160 80C160 35.8171 124.183 0 80 0ZM110.52 40.7407L99.4553 40.7456C90.7785 40.7456 89.1008 44.8687 89.1008 50.9185V64.2586H109.792L109.782 85.1527H89.1024V138.772H67.5208V85.1527H49.4797V64.2586H67.5208V48.8495C67.5208 30.9672 78.4467 21.228 94.3975 21.228L110.522 21.2526V40.7407H110.52Z" fill="#DDDDDD"/>
</svg>
