<svg width="160" height="160" viewBox="0 0 160 160" fill="none" xmlns="http://www.w3.org/2000/svg">
<path d="M80 56C73.6348 56 67.5303 58.5286 63.0294 63.0294C58.5286 67.5303 56 73.6348 56 80C56 86.3652 58.5286 92.4697 63.0294 96.9706C67.5303 101.471 73.6348 104 80 104C86.3652 104 92.4697 101.471 96.9706 96.9706C101.471 92.4697 104 86.3652 104 80C104 73.6348 101.471 67.5303 96.9706 63.0294C92.4697 58.5286 86.3652 56 80 56ZM80 40C90.6087 40 100.783 44.2143 108.284 51.7157C115.786 59.2172 120 69.3913 120 80C120 90.6087 115.786 100.783 108.284 108.284C100.783 115.786 90.6087 120 80 120C69.3913 120 59.2172 115.786 51.7157 108.284C44.2143 100.783 40 90.6087 40 80C40 69.3913 44.2143 59.2172 51.7157 51.7157C59.2172 44.2143 69.3913 40 80 40V40ZM132 38C132 40.6522 130.946 43.1957 129.071 45.0711C127.196 46.9464 124.652 48 122 48C119.348 48 116.804 46.9464 114.929 45.0711C113.054 43.1957 112 40.6522 112 38C112 35.3478 113.054 32.8043 114.929 30.9289C116.804 29.0536 119.348 28 122 28C124.652 28 127.196 29.0536 129.071 30.9289C130.946 32.8043 132 35.3478 132 38V38ZM80 16C60.208 16 56.976 16.056 47.768 16.464C41.496 16.76 37.288 17.6 33.384 19.12C29.912 20.464 27.408 22.072 24.744 24.744C22.2401 27.1632 20.3148 30.1167 19.112 33.384C17.592 37.304 16.752 41.504 16.464 47.768C16.048 56.6 16 59.688 16 80C16 99.792 16.056 103.024 16.464 112.232C16.76 118.496 17.6 122.712 19.112 126.608C20.472 130.088 22.072 132.592 24.728 135.248C27.424 137.936 29.928 139.544 33.368 140.872C37.32 142.4 41.528 143.248 47.768 143.536C56.6 143.952 59.688 144 80 144C99.792 144 103.024 143.944 112.232 143.536C118.488 143.24 122.704 142.4 126.608 140.888C130.072 139.536 132.592 137.928 135.248 135.272C137.944 132.576 139.552 130.072 140.88 126.632C142.4 122.688 143.248 118.472 143.536 112.232C143.952 103.4 144 100.312 144 80C144 60.208 143.944 56.976 143.536 47.768C143.24 41.512 142.4 37.288 140.88 33.384C139.674 30.12 137.753 27.1677 135.256 24.744C132.838 22.2388 129.884 20.3133 126.616 19.112C122.696 17.592 118.488 16.752 112.232 16.464C103.4 16.048 100.312 16 80 16ZM80 0C101.736 0 104.448 0.0799995 112.976 0.48C121.496 0.88 127.296 2.216 132.4 4.2C137.68 6.232 142.128 8.984 146.576 13.424C150.644 17.4232 153.792 22.2607 155.8 27.6C157.776 32.696 159.12 38.504 159.52 47.024C159.896 55.552 160 58.264 160 80C160 101.736 159.92 104.448 159.52 112.976C159.12 121.496 157.776 127.296 155.8 132.4C153.797 137.742 150.649 142.581 146.576 146.576C142.576 150.643 137.738 153.79 132.4 155.8C127.304 157.776 121.496 159.12 112.976 159.52C104.448 159.896 101.736 160 80 160C58.264 160 55.552 159.92 47.024 159.52C38.504 159.12 32.704 157.776 27.6 155.8C22.2586 153.796 17.4202 150.648 13.424 146.576C9.35525 142.577 6.20745 137.74 4.2 132.4C2.216 127.304 0.88 121.496 0.48 112.976C0.104 104.448 0 101.736 0 80C0 58.264 0.0799995 55.552 0.48 47.024C0.88 38.496 2.216 32.704 4.2 27.6C6.20189 22.2574 9.35043 17.4186 13.424 13.424C17.4214 9.35385 22.2594 6.20583 27.6 4.2C32.704 2.216 38.496 0.88 47.024 0.48C55.552 0.104 58.264 0 80 0Z" fill="#DDDDDD"/>
</svg>
