<svg width="200" height="164" viewBox="0 0 200 164" fill="none" xmlns="http://www.w3.org/2000/svg">
<path d="M195.467 18.8974C192.325 20.2909 189.095 21.467 185.794 22.4219C189.702 18.0025 192.681 12.8025 194.5 7.11223C194.908 5.83675 194.485 4.44063 193.437 3.60644C192.39 2.7716 190.935 2.6716 189.782 3.35483C182.772 7.51223 175.21 10.5 167.28 12.2471C159.293 4.44192 148.444 0 137.228 0C113.554 0 94.2934 19.2599 94.2934 42.9334C94.2934 44.7979 94.4114 46.6521 94.645 48.4805C65.2677 45.9011 37.9561 31.4618 19.2014 8.4561C18.533 7.6361 17.5033 7.19417 16.4491 7.27869C15.3943 7.36127 14.4465 7.9561 13.9136 8.87029C10.1098 15.3974 8.09882 22.8625 8.09882 30.458C8.09882 40.8031 11.7924 50.6185 18.3169 58.2882C16.333 57.6011 14.4078 56.7424 12.5704 55.7224C11.584 55.1734 10.3801 55.1818 9.40011 55.7437C8.41946 56.3056 7.80463 57.3392 7.77882 58.4688C7.77431 58.6592 7.77431 58.8495 7.77431 59.0424C7.77431 74.4843 16.0852 88.3868 28.7917 95.9642C27.7 95.8552 26.6091 95.6971 25.5252 95.49C24.4078 95.2765 23.2588 95.6681 22.5052 96.5203C21.7504 97.3719 21.5007 98.559 21.8485 99.6429C26.5517 114.327 38.6607 125.127 53.2993 128.42C41.1581 136.025 27.2736 140.008 12.6982 140.008C9.65688 140.008 6.59818 139.829 3.60464 139.475C2.11755 139.298 0.695618 140.176 0.189168 141.591C-0.317282 143.005 0.219491 144.583 1.48465 145.394C20.2091 157.399 41.86 163.745 64.0954 163.745C107.808 163.745 135.153 143.132 150.394 125.84C169.401 104.278 180.301 75.7385 180.301 47.5392C180.301 46.3611 180.283 45.1715 180.247 43.9857C187.746 38.336 194.202 31.4986 199.456 23.6399C200.254 22.4464 200.167 20.869 199.243 19.7703C198.319 18.6709 196.781 18.3154 195.467 18.8974Z" fill="#DDDDDD"/>
</svg>
