<svg width="159" height="160" viewBox="0 0 159 160" fill="none" xmlns="http://www.w3.org/2000/svg">
<path d="M101.959 88.0667C105.818 89.3 109.156 90.84 112.26 92.7333L112.053 92.6133C115.585 94.18 118.636 96.0133 121.42 98.1667L121.32 98.0933C121.453 98.5 121.534 98.96 121.534 99.4467C121.534 99.52 121.534 99.5867 121.527 99.66V99.6533C121.427 102.513 120.792 105.2 119.718 107.647L119.771 107.507C118.229 110.593 115.658 112.973 112.514 114.24L112.421 114.273C109.356 115.893 105.738 116.893 101.899 117.013H101.859C94.515 116.04 87.8788 113.787 81.9103 110.467L82.1974 110.613C75.3743 107.493 69.546 103.393 64.5989 98.42L64.5922 98.4133C59.0911 92.7 54.0505 86.4467 49.5841 79.7867L49.2704 79.2933C45.0243 73.7667 42.3204 66.8533 41.9265 59.3267L41.9199 59.24V58.4133C42.1335 51.9133 45.0443 46.1267 49.5574 42.1L49.5775 42.08C50.9594 40.7067 52.8555 39.8467 54.9518 39.8067H54.9585C55.6328 39.8267 56.2804 39.88 56.9079 39.9733L56.8211 39.96C57.402 40.0467 58.0763 40.1 58.7706 40.1133H58.7906C58.9175 40.1 59.0577 40.0933 59.2045 40.0933C60.0725 40.0933 60.8803 40.3533 61.5546 40.7933L61.5412 40.7867C62.2556 41.5733 62.803 42.5267 63.1302 43.5733L63.1435 43.6267C63.6954 45.0044 64.8348 48.0356 66.5617 52.72C67.463 54.8133 68.3443 57.3933 69.0519 60.0467L69.1454 60.4667C68.638 62.8733 67.3562 64.92 65.587 66.3933L65.567 66.4067C63.1858 68.9222 61.9952 70.5222 61.9952 71.2067C62.0219 71.7933 62.2222 72.3267 62.536 72.7667L62.5293 72.76C65.2332 78.2867 68.7782 82.98 73.051 86.8867L73.0844 86.92C77.5908 90.98 82.7382 94.4667 88.3195 97.1867L88.7134 97.36C89.3609 97.78 90.1354 98.0467 90.9766 98.0867H90.9899C92.027 98.0867 93.8919 96.4156 96.5846 93.0733C99.2773 89.7311 101.067 88.06 101.952 88.06L101.959 88.0667ZM80.9489 142.84H81.0958C90.1554 142.84 98.7677 140.94 106.559 137.513L106.152 137.673C121.881 131.047 134.145 118.8 140.621 103.513L140.781 103.093C144.052 95.6733 145.955 87.02 145.955 77.9267C145.955 68.8333 144.052 60.18 140.621 52.3467L140.781 52.76C134.145 37.0533 121.881 24.8067 106.572 18.34L106.152 18.18C98.721 14.9133 90.0553 13.0133 80.9489 13.0133C71.8426 13.0133 63.1769 14.9133 55.3324 18.34L55.7463 18.18C40.0172 24.8067 27.753 37.0533 21.2771 52.34L21.1168 52.76C17.8455 60.2067 15.9428 68.8867 15.9428 78.0067C15.9428 92.28 20.6028 105.473 28.4873 116.14L28.3605 115.967L20.1822 140.053L45.2313 132.093C55.1788 138.827 67.443 142.84 80.6485 142.84H80.9623H80.9489ZM80.9489 0H81.1693C92.0381 0 102.373 2.28 111.713 6.39333L111.226 6.2C130.086 14.18 144.793 28.8667 152.591 47.1933L152.785 47.7C156.71 56.6133 158.994 67.0067 158.994 77.9333C158.994 88.86 156.71 99.2533 152.591 108.66L152.785 108.167C144.793 127 130.086 141.687 111.733 149.473L111.226 149.667C102.366 153.587 92.0314 155.867 81.1626 155.867C81.0891 155.867 81.009 155.867 80.9356 155.867H80.9489C80.8421 155.867 80.7219 155.867 80.5951 155.867C66.8488 155.867 53.9437 152.26 42.7811 145.947L43.1616 146.147L0 160L14.0801 118.14C7.06342 106.713 2.90415 92.88 2.90415 78.0733C2.90415 67.1 5.18741 56.66 9.30662 47.2L9.11301 47.7C17.1044 28.8667 31.8121 14.18 50.165 6.39333L50.6724 6.2C59.5317 2.28 69.8664 0 80.7353 0H80.9556H80.9423L80.9489 0Z" fill="#DDDDDD"/>
</svg>
