<svg width="512" height="512" viewBox="0 0 512 512" fill="none" xmlns="http://www.w3.org/2000/svg">
<path d="M480 80H400V48C400 30.328 385.672 16 368 16C350.328 16 336 30.328 336 48V80H176V48C176 30.328 161.672 16 144 16C126.328 16 112 30.328 112 48V80H32C14.326 80 0 94.326 0 112V144H512V112C512 94.326 497.674 80 480 80Z" fill="#F7931E"/>
<path d="M0 464C0 481.674 14.326 496 32 496H480C497.674 496 512 481.674 512 464V176H0V464ZM352 240H416V304H352V240ZM224 240H288V304H224V240ZM224 368H288V432H224V368ZM96 240H160V304H96V240ZM96 368H160V432H96V368Z" fill="#F7931E"/>
</svg>
