<svg width="200" height="200" viewBox="0 0 200 200" fill="none" xmlns="http://www.w3.org/2000/svg">
<g clip-path="url(#clip0_30_2)">
<path d="M179.592 120.147C179.573 119.868 179.553 119.59 179.529 119.309C179.406 117.669 179.236 116.044 179.017 114.43C178.998 114.296 178.984 114.163 178.966 114.031C178.736 112.414 178.472 110.806 178.145 109.219C168.21 57.9631 116.845 9.5311 62.206 0.0621027C60.486 -0.235897 58.76 0.552111 57.858 2.04611C56.957 3.54111 57.064 5.43611 58.13 6.81711C72.721 25.7281 60.339 52.8301 42.693 69.8481C42.696 69.8501 42.712 69.8531 42.712 69.8531C28.799 84.2131 20.219 103.775 20.219 125.351C20.219 159.257 41.374 188.212 71.203 199.761C72.649 200.321 74.292 199.866 75.245 198.643C76.198 197.42 76.239 195.714 75.342 194.449C70.174 187.17 66.255 177.621 66.255 165.402C66.255 124.088 99.999 97.8761 99.999 97.8761C99.999 97.8761 133.744 124.087 133.744 165.402C133.744 177.621 129.824 187.17 124.656 194.449C123.758 195.715 123.796 197.42 124.75 198.644C125.704 199.868 127.348 200.322 128.795 199.761C158.623 188.212 179.779 159.256 179.779 125.351C179.78 123.6 179.703 121.87 179.592 120.147Z" fill="#FB5B45"/>
</g>
<defs>
<clipPath id="clip0_30_2">
<rect width="200" height="200" fill="white"/>
</clipPath>
</defs>
</svg>
