<svg width="279" height="89" viewBox="0 0 279 89" fill="none" xmlns="http://www.w3.org/2000/svg">
<circle cx="44" cy="44.6418" r="24.5" stroke="#F7931E" stroke-width="5"/>
<path d="M56.0001 43.6419C54.8001 56.8419 64.8334 71.1419 70.0001 76.6419C67.1667 79.6419 58.1 85.8418 44.5 86.6418C27.5 87.6418 2.5 71.6418 2.5 43.6419C2.5 15.6419 23.5 3.64185 40 2.14185C53.2 0.941846 67.0001 7.64186 70.0001 11.6419C65.8334 16.8085 57.2001 30.4419 56.0001 43.6419Z" stroke="black" stroke-width="4"/>
<path d="M90.1426 45.543C90.1426 42.6719 90.9688 40.334 92.6211 38.5293C94.2852 36.7246 96.4766 35.8223 99.1953 35.8223C102.055 35.8223 104.275 36.6895 105.857 38.4238C107.439 40.1582 108.23 42.5312 108.23 45.543C108.23 48.543 107.422 50.9277 105.805 52.6973C104.199 54.4668 101.996 55.3516 99.1953 55.3516C96.3359 55.3516 94.1094 54.4609 92.5156 52.6797C90.9336 50.8867 90.1426 48.5078 90.1426 45.543ZM94.7129 45.543C94.7129 49.6914 96.207 51.7656 99.1953 51.7656C100.566 51.7656 101.65 51.2266 102.447 50.1484C103.256 49.0703 103.66 47.5352 103.66 45.543C103.66 41.4531 102.172 39.4082 99.1953 39.4082C97.8242 39.4082 96.7344 39.9473 95.9258 41.0254C95.1172 42.1035 94.7129 43.6094 94.7129 45.543ZM112.52 29.1602L116.914 28.1055V49.2695C116.914 51.5898 117.605 52.9727 118.988 53.418C118.309 54.707 117.148 55.3516 115.508 55.3516C113.516 55.3516 112.52 53.9688 112.52 51.2031V29.1602ZM134.562 55V43.3984C134.562 42.2383 134.199 41.3066 133.473 40.6035C132.746 39.9004 131.797 39.5488 130.625 39.5488C129.898 39.5488 129.166 39.748 128.428 40.1465C127.689 40.5332 127.162 40.9785 126.846 41.4824V55H122.381V29.1602L126.846 28.1055V37.3691C127.982 36.3379 129.547 35.8223 131.539 35.8223C133.895 35.8223 135.723 36.4785 137.023 37.791C138.324 39.0918 138.975 40.9609 138.975 43.3984V55H134.562ZM154.197 53.1191C153.799 53.7754 153.102 54.3145 152.105 54.7363C151.121 55.1465 150.09 55.3516 149.012 55.3516C146.984 55.3516 145.391 54.8477 144.23 53.8398C143.07 52.8203 142.49 51.3789 142.49 49.5156C142.49 47.3359 143.305 45.6309 144.934 44.4004C146.574 43.1699 148.9 42.5547 151.912 42.5547C152.428 42.5547 153.037 42.6426 153.74 42.8184C153.74 40.6035 152.34 39.4961 149.539 39.4961C147.887 39.4961 146.504 39.7715 145.391 40.3223L144.441 36.9121C145.953 36.1855 147.752 35.8223 149.838 35.8223C152.709 35.8223 154.812 36.4785 156.148 37.791C157.484 39.0918 158.152 41.5645 158.152 45.209V49.2344C158.152 51.7422 158.656 53.3184 159.664 53.9629C159.301 54.5957 158.896 54.9824 158.451 55.123C158.006 55.2754 157.496 55.3516 156.922 55.3516C156.289 55.3516 155.721 55.1172 155.217 54.6484C154.713 54.1797 154.373 53.6699 154.197 53.1191ZM153.775 46.1406C153.025 45.9883 152.463 45.9121 152.088 45.9121C148.619 45.9121 146.885 47.0488 146.885 49.3223C146.885 51.0098 147.863 51.8535 149.82 51.8535C152.457 51.8535 153.775 50.5352 153.775 47.8984V46.1406ZM173.797 40.2695C173.012 39.7539 172.15 39.4961 171.213 39.4961C170.193 39.4961 169.285 39.959 168.488 40.8848C167.703 41.8105 167.311 42.9414 167.311 44.2773V55H162.916V36.1738H167.311V37.8965C168.541 36.5137 170.176 35.8223 172.215 35.8223C173.715 35.8223 174.863 36.0508 175.66 36.5078L173.797 40.2695ZM190.426 55V53.8574C190.062 54.2559 189.447 54.6074 188.58 54.9121C187.713 55.2051 186.816 55.3516 185.891 55.3516C183.266 55.3516 181.197 54.5195 179.686 52.8555C178.186 51.1914 177.436 48.8711 177.436 45.8945C177.436 42.918 178.297 40.498 180.02 38.6348C181.754 36.7598 183.922 35.8223 186.523 35.8223C187.953 35.8223 189.254 36.1152 190.426 36.7012V29.1602L194.82 28.1055V55H190.426ZM190.426 40.6738C189.488 39.9238 188.51 39.5488 187.49 39.5488C185.732 39.5488 184.379 40.0879 183.43 41.166C182.48 42.2324 182.006 43.7676 182.006 45.7715C182.006 49.6855 183.893 51.6426 187.666 51.6426C188.088 51.6426 188.604 51.5195 189.213 51.2734C189.834 51.0156 190.238 50.7578 190.426 50.5V40.6738ZM202.678 28.8789C203.381 28.8789 203.979 29.1309 204.471 29.6348C204.975 30.127 205.227 30.7246 205.227 31.4277C205.227 32.1309 204.975 32.7344 204.471 33.2383C203.979 33.7305 203.381 33.9766 202.678 33.9766C201.975 33.9766 201.371 33.7305 200.867 33.2383C200.375 32.7344 200.129 32.1309 200.129 31.4277C200.129 30.7246 200.375 30.127 200.867 29.6348C201.371 29.1309 201.975 28.8789 202.678 28.8789ZM200.41 55V39.7773H198.002V36.1738H204.857V55H200.41ZM220.871 40.2695C220.086 39.7539 219.225 39.4961 218.287 39.4961C217.268 39.4961 216.359 39.959 215.562 40.8848C214.777 41.8105 214.385 42.9414 214.385 44.2773V55H209.99V36.1738H214.385V37.8965C215.615 36.5137 217.25 35.8223 219.289 35.8223C220.789 35.8223 221.938 36.0508 222.734 36.5078L220.871 40.2695ZM242.193 46.9316H228.746C228.828 48.4316 229.344 49.5977 230.293 50.4297C231.242 51.2617 232.52 51.6777 234.125 51.6777C236.129 51.6777 237.652 51.1562 238.695 50.1133L240.4 53.4707C238.854 54.7246 236.545 55.3516 233.475 55.3516C230.604 55.3516 228.33 54.5137 226.654 52.8379C224.99 51.1504 224.158 48.8008 224.158 45.7891C224.158 42.8242 225.072 40.4219 226.9 38.582C228.74 36.7422 230.943 35.8223 233.51 35.8223C236.24 35.8223 238.432 36.6367 240.084 38.2656C241.736 39.8945 242.562 41.9688 242.562 44.4883C242.562 45.0273 242.439 45.8418 242.193 46.9316ZM228.904 43.627H238.15C237.846 40.873 236.322 39.4961 233.58 39.4961C231.072 39.4961 229.514 40.873 228.904 43.627ZM246.764 39.707H244.584V36.1738H246.764V32.3418L251.158 30.7246V36.1738H256.326V39.707H251.158V47.9512C251.158 49.2988 251.369 50.2539 251.791 50.8164C252.213 51.3672 252.951 51.6426 254.006 51.6426C255.061 51.6426 256.045 51.3555 256.959 50.7812V54.8242C255.939 55.1758 254.486 55.3516 252.6 55.3516C250.725 55.3516 249.283 54.8242 248.275 53.7695C247.268 52.7031 246.764 51.1914 246.764 49.2344V39.707ZM259.139 45.543C259.139 42.6719 259.965 40.334 261.617 38.5293C263.281 36.7246 265.473 35.8223 268.191 35.8223C271.051 35.8223 273.271 36.6895 274.854 38.4238C276.436 40.1582 277.227 42.5312 277.227 45.543C277.227 48.543 276.418 50.9277 274.801 52.6973C273.195 54.4668 270.992 55.3516 268.191 55.3516C265.332 55.3516 263.105 54.4609 261.512 52.6797C259.93 50.8867 259.139 48.5078 259.139 45.543ZM263.709 45.543C263.709 49.6914 265.203 51.7656 268.191 51.7656C269.562 51.7656 270.646 51.2266 271.443 50.1484C272.252 49.0703 272.656 47.5352 272.656 45.543C272.656 41.4531 271.168 39.4082 268.191 39.4082C266.82 39.4082 265.73 39.9473 264.922 41.0254C264.113 42.1035 263.709 43.6094 263.709 45.543Z" fill="black"/>
</svg>
